<svg width="32" height="32" viewBox="0 0 32 32" fill="none" xmlns="http://www.w3.org/2000/svg">
<circle cx="16" cy="16" r="14.5" fill="white" stroke="#1D9BF0" stroke-width="3"/>
<circle cx="11.5" cy="12.5" r="1.5" fill="#1D9BF0"/>
<circle cx="20.5" cy="12.5" r="1.5" fill="#1D9BF0"/>
<mask id="path-4-inside-1_7_374" fill="white">
<path d="M24 19.5C24 20.2384 23.7837 20.9693 23.364 21.649C22.9444 22.3287 22.3299 22.9434 21.5573 23.4563C20.7847 23.9693 19.8697 24.37 18.867 24.6347C17.8643 24.8993 16.7943 25.0224 15.7209 24.9967C14.6475 24.9709 13.5926 24.7968 12.6192 24.4847C11.6457 24.1727 10.7736 23.729 10.0549 23.1803C9.33623 22.6315 8.78561 21.9889 8.43591 21.2907C8.0862 20.5925 7.94458 19.8531 8.01947 19.1165L16 19.5H24Z"/>
</mask>
<path d="M24 19.5C24 20.2384 23.7837 20.9693 23.364 21.649C22.9444 22.3287 22.3299 22.9434 21.5573 23.4563C20.7847 23.9693 19.8697 24.37 18.867 24.6347C17.8643 24.8993 16.7943 25.0224 15.7209 24.9967C14.6475 24.9709 13.5926 24.7968 12.6192 24.4847C11.6457 24.1727 10.7736 23.729 10.0549 23.1803C9.33623 22.6315 8.78561 21.9889 8.43591 21.2907C8.0862 20.5925 7.94458 19.8531 8.01947 19.1165L16 19.5H24Z" stroke="#1D9BF0" stroke-width="6" mask="url(#path-4-inside-1_7_374)"/>
</svg>
