<svg width="32" height="32" viewBox="0 0 32 32" fill="none" xmlns="http://www.w3.org/2000/svg">
<circle cx="16" cy="16" r="14.75" fill="white" stroke="black" stroke-width="2.5"/>
<circle cx="11.5" cy="12.5" r="1.5" fill="black"/>
<circle cx="20.5" cy="12.5" r="1.5" fill="black"/>
<mask id="path-4-inside-1_24_114" fill="white">
<path d="M24 22.5C24 21.8958 23.7837 21.2979 23.364 20.7417C22.9444 20.1856 22.3299 19.6827 21.5573 19.263C20.7847 18.8433 19.8697 18.5154 18.867 18.2989C17.8643 18.0824 16.7943 17.9817 15.7209 18.0027C14.6475 18.0238 13.5926 18.1663 12.6192 18.4216C11.6457 18.6769 10.7736 19.0399 10.0549 19.4889C9.33623 19.9378 8.78561 20.4636 8.43591 21.0349C8.0862 21.6061 7.94458 22.2111 8.01947 22.8138L16 22.5H24Z"/>
</mask>
<path d="M24 22.5C24 21.8958 23.7837 21.2979 23.364 20.7417C22.9444 20.1856 22.3299 19.6827 21.5573 19.263C20.7847 18.8433 19.8697 18.5154 18.867 18.2989C17.8643 18.0824 16.7943 17.9817 15.7209 18.0027C14.6475 18.0238 13.5926 18.1663 12.6192 18.4216C11.6457 18.6769 10.7736 19.0399 10.0549 19.4889C9.33623 19.9378 8.78561 20.4636 8.43591 21.0349C8.0862 21.6061 7.94458 22.2111 8.01947 22.8138L16 22.5H24Z" stroke="black" stroke-width="5" mask="url(#path-4-inside-1_24_114)"/>
</svg>
