<svg width="37" height="32" viewBox="0 0 37 32" fill="none" xmlns="http://www.w3.org/2000/svg">
<rect x="1.5" y="1.5" width="33.0513" height="29" rx="2.5" stroke="#1D9BF0" stroke-width="3"/>
<path d="M13.1236 14.6545C13.0632 14.4308 12.9745 14.2337 12.8573 14.0632C12.7401 13.8892 12.5963 13.7418 12.4258 13.6211C12.2554 13.5004 12.0601 13.4098 11.8399 13.3494C11.6197 13.2855 11.3782 13.2536 11.1154 13.2536C10.5863 13.2536 10.1282 13.3814 9.74116 13.6371C9.35764 13.8928 9.06112 14.2656 8.8516 14.7557C8.64208 15.2422 8.53732 15.8335 8.53732 16.5295C8.53732 17.229 8.63853 17.8256 8.84095 18.3192C9.04336 18.8129 9.33633 19.1893 9.71985 19.4485C10.1034 19.7077 10.5686 19.8374 11.1154 19.8374C11.5984 19.8374 12.0068 19.7592 12.3406 19.603C12.6779 19.4432 12.9336 19.2177 13.1076 18.9265C13.2816 18.6353 13.3686 18.2926 13.3686 17.8984L13.8587 17.957H11.206V16.0341H15.9095V17.4776C15.9095 18.4542 15.7017 19.2905 15.2863 19.9865C14.8743 20.6825 14.3061 21.217 13.5817 21.5898C12.8608 21.9627 12.0316 22.1491 11.0941 22.1491C10.0537 22.1491 9.13924 21.9237 8.35089 21.4727C7.56254 21.0217 6.94819 20.3789 6.50785 19.5444C6.06751 18.7063 5.84734 17.712 5.84734 16.5614C5.84734 15.6665 5.9805 14.8729 6.24684 14.1804C6.51318 13.4844 6.88427 12.8949 7.36012 12.4119C7.83952 11.929 8.3935 11.5632 9.02205 11.3146C9.65416 11.0661 10.3342 10.9418 11.0622 10.9418C11.6943 10.9418 12.282 11.0323 12.8253 11.2134C13.3722 11.3945 13.8551 11.6502 14.2742 11.9805C14.6968 12.3107 15.0395 12.7031 15.3022 13.1577C15.565 13.6122 15.7284 14.1112 15.7923 14.6545H13.1236ZM20.1003 11.0909V22H17.4635V11.0909H20.1003ZM21.7555 22V11.0909H29.2023V13.2322H24.3923V15.4695H28.7282V17.6161H24.3923V22H21.7555Z" fill="#1D9BF0"/>
</svg>
