<svg width="34" height="34" viewBox="0 0 34 34" fill="none" xmlns="http://www.w3.org/2000/svg">
<path fill-rule="evenodd" clip-rule="evenodd" d="M12.9943 2.07541C13.0359 1.80242 12.8484 1.54737 12.5754 1.50573C12.3024 1.46408 12.0474 1.65163 12.0057 1.92461L10.8501 9.50001H2C1.72386 9.50001 1.5 9.72387 1.5 10C1.5 10.2762 1.72386 10.5 2 10.5H10.6976L8.71456 23.5H2C1.72386 23.5 1.5 23.7239 1.5 24C1.5 24.2762 1.72386 24.5 2 24.5H8.56201L7.50572 31.4246C7.46408 31.6976 7.65162 31.9527 7.9246 31.9943C8.19759 32.0359 8.45264 31.8484 8.49428 31.5754L9.57358 24.5H21.562L20.5057 31.4246C20.4641 31.6976 20.6516 31.9527 20.9246 31.9943C21.1976 32.0359 21.4526 31.8484 21.4943 31.5754L22.5736 24.5H31.5C31.7761 24.5 32 24.2762 32 24C32 23.7239 31.7761 23.5 31.5 23.5H22.7261L24.7092 10.5H31.5C31.7761 10.5 32 10.2762 32 10C32 9.72387 31.7761 9.50001 31.5 9.50001H24.8617L25.9943 2.07541C26.0359 1.80242 25.8484 1.54737 25.5754 1.50573C25.3024 1.46408 25.0474 1.65163 25.0057 1.92461L23.8501 9.50001H11.8617L12.9943 2.07541ZM21.7146 23.5L23.6976 10.5H11.7092L9.72612 23.5H21.7146Z" fill="black"/>
<path d="M12.5754 1.50573L12.7639 0.270021L12.7639 0.270021L12.5754 1.50573ZM12.9943 2.07541L11.7586 1.88691L11.7586 1.88691L12.9943 2.07541ZM12.0057 1.92461L13.2414 2.11311L13.2414 2.11311L12.0057 1.92461ZM10.8501 9.50001V10.75H11.9239L12.0859 9.68851L10.8501 9.50001ZM10.6976 10.5L11.9333 10.6885L12.1527 9.25001H10.6976V10.5ZM8.71456 23.5V24.75H9.78834L9.95026 23.6885L8.71456 23.5ZM8.56201 24.5L9.79772 24.6885L10.0172 23.25H8.56201V24.5ZM7.50572 31.4246L6.27001 31.2361L6.27001 31.2361L7.50572 31.4246ZM7.9246 31.9943L8.1131 30.7586L8.1131 30.7586L7.9246 31.9943ZM8.49428 31.5754L9.72999 31.7639L9.72999 31.7639L8.49428 31.5754ZM9.57358 24.5V23.25H8.4998L8.33787 24.3115L9.57358 24.5ZM21.562 24.5L22.7977 24.6885L23.0172 23.25H21.562V24.5ZM20.5057 31.4246L21.7414 31.6131L21.7414 31.6131L20.5057 31.4246ZM20.9246 31.9943L21.1131 30.7586L21.1131 30.7586L20.9246 31.9943ZM21.4943 31.5754L20.2586 31.3869L20.2586 31.3869L21.4943 31.5754ZM22.5736 24.5V23.25H21.4998L21.3379 24.3115L22.5736 24.5ZM22.7261 23.5L21.4904 23.3115L21.271 24.75H22.7261V23.5ZM24.7092 10.5V9.25001H23.6354L23.4735 10.3115L24.7092 10.5ZM24.8617 9.50001L23.626 9.31151L23.4066 10.75H24.8617V9.50001ZM25.9943 2.07541L27.23 2.26391L27.23 2.2639L25.9943 2.07541ZM25.5754 1.50573L25.7639 0.270021L25.7639 0.270021L25.5754 1.50573ZM25.0057 1.92461L26.2414 2.11311L26.2414 2.11311L25.0057 1.92461ZM23.8501 9.50001V10.75H24.9239L25.0859 9.68851L23.8501 9.50001ZM11.8617 9.50001L10.626 9.31151L10.4066 10.75H11.8617V9.50001ZM21.7146 23.5V24.75H22.7883L22.9503 23.6885L21.7146 23.5ZM23.6976 10.5L24.9333 10.6885L25.1527 9.25001H23.6976V10.5ZM11.7092 10.5V9.25001H10.6354L10.4735 10.3115L11.7092 10.5ZM9.72612 23.5L8.49042 23.3115L8.27099 24.75H9.72612V23.5ZM12.3869 2.74143C11.9774 2.67897 11.6961 2.29639 11.7586 1.88691L14.23 2.26391C14.3757 1.30846 13.7193 0.415767 12.7639 0.270021L12.3869 2.74143ZM13.2414 2.11311C13.179 2.52258 12.7964 2.80389 12.3869 2.74143L12.7639 0.270021C11.8085 0.124275 10.9158 0.780666 10.77 1.73611L13.2414 2.11311ZM12.0859 9.68851L13.2414 2.11311L10.77 1.73611L9.61444 9.31151L12.0859 9.68851ZM2 10.75H10.8501V8.25001H2V10.75ZM2.75 10C2.75 10.4142 2.41421 10.75 2 10.75V8.25001C1.0335 8.25001 0.25 9.03351 0.25 10H2.75ZM2 9.25001C2.41421 9.25001 2.75 9.5858 2.75 10H0.25C0.25 10.9665 1.0335 11.75 2 11.75V9.25001ZM10.6976 9.25001H2V11.75H10.6976V9.25001ZM9.95026 23.6885L11.9333 10.6885L9.4619 10.3115L7.47885 23.3115L9.95026 23.6885ZM2 24.75H8.71456V22.25H2V24.75ZM2.75 24C2.75 24.4142 2.41421 24.75 2 24.75V22.25C1.0335 22.25 0.25 23.0335 0.25 24H2.75ZM2 23.25C2.41421 23.25 2.75 23.5858 2.75 24H0.25C0.25 24.9665 1.0335 25.75 2 25.75V23.25ZM8.56201 23.25H2V25.75H8.56201V23.25ZM8.74142 31.6131L9.79772 24.6885L7.32631 24.3115L6.27001 31.2361L8.74142 31.6131ZM8.1131 30.7586C8.52258 30.821 8.80389 31.2036 8.74142 31.6131L6.27001 31.2361C6.12427 32.1916 6.78066 33.0843 7.73611 33.23L8.1131 30.7586ZM7.25858 31.3869C7.32104 30.9774 7.70362 30.6961 8.1131 30.7586L7.7361 33.23C8.69155 33.3757 9.58424 32.7193 9.72999 31.7639L7.25858 31.3869ZM8.33787 24.3115L7.25858 31.3869L9.72999 31.7639L10.8093 24.6885L8.33787 24.3115ZM21.562 23.25H9.57358V25.75H21.562V23.25ZM21.7414 31.6131L22.7977 24.6885L20.3263 24.3115L19.27 31.2361L21.7414 31.6131ZM21.1131 30.7586C21.5226 30.821 21.8039 31.2036 21.7414 31.6131L19.27 31.2361C19.1243 32.1916 19.7807 33.0843 20.7361 33.23L21.1131 30.7586ZM20.2586 31.3869C20.321 30.9774 20.7036 30.6961 21.1131 30.7586L20.7361 33.23C21.6916 33.3757 22.5842 32.7193 22.73 31.7639L20.2586 31.3869ZM21.3379 24.3115L20.2586 31.3869L22.73 31.7639L23.8093 24.6885L21.3379 24.3115ZM31.5 23.25H22.5736V25.75H31.5V23.25ZM30.75 24C30.75 23.5858 31.0858 23.25 31.5 23.25V25.75C32.4665 25.75 33.25 24.9665 33.25 24H30.75ZM31.5 24.75C31.0858 24.75 30.75 24.4142 30.75 24H33.25C33.25 23.0335 32.4665 22.25 31.5 22.25V24.75ZM22.7261 24.75H31.5V22.25H22.7261V24.75ZM23.4735 10.3115L21.4904 23.3115L23.9618 23.6885L25.9449 10.6885L23.4735 10.3115ZM31.5 9.25001H24.7092V11.75H31.5V9.25001ZM30.75 10C30.75 9.58579 31.0858 9.25001 31.5 9.25001V11.75C32.4665 11.75 33.25 10.9665 33.25 10H30.75ZM31.5 10.75C31.0858 10.75 30.75 10.4142 30.75 10H33.25C33.25 9.03351 32.4665 8.25001 31.5 8.25001V10.75ZM24.8617 10.75H31.5V8.25001H24.8617V10.75ZM24.7586 1.88691L23.626 9.31151L26.0974 9.68851L27.23 2.26391L24.7586 1.88691ZM25.3869 2.74143C24.9774 2.67897 24.6961 2.29638 24.7586 1.88691L27.23 2.2639C27.3757 1.30846 26.7193 0.415768 25.7639 0.270021L25.3869 2.74143ZM26.2414 2.11311C26.179 2.52258 25.7964 2.80389 25.3869 2.74143L25.7639 0.270021C24.8085 0.124275 23.9158 0.780666 23.77 1.73611L26.2414 2.11311ZM25.0859 9.68851L26.2414 2.11311L23.77 1.73611L22.6144 9.31151L25.0859 9.68851ZM11.8617 10.75H23.8501V8.25001H11.8617V10.75ZM11.7586 1.88691L10.626 9.31151L13.0974 9.68851L14.23 2.26391L11.7586 1.88691ZM22.9503 23.6885L24.9333 10.6885L22.4619 10.3115L20.4788 23.3115L22.9503 23.6885ZM23.6976 9.25001H11.7092V11.75H23.6976V9.25001ZM10.4735 10.3115L8.49042 23.3115L10.9618 23.6885L12.9449 10.6885L10.4735 10.3115ZM9.72612 24.75H21.7146V22.25H9.72612V24.75Z" fill="black"/>
</svg>
