<svg width="32" height="32" viewBox="0 0 32 32" fill="none" xmlns="http://www.w3.org/2000/svg">
<path fill-rule="evenodd" clip-rule="evenodd" d="M11.9943 1.07541C12.0359 0.802423 11.8484 0.547368 11.5754 0.505726C11.3024 0.464085 11.0474 0.651625 11.0057 0.92461L9.85015 8.50001H1C0.723858 8.50001 0.5 8.72387 0.5 9.00001C0.5 9.27615 0.723858 9.50001 1 9.50001H9.69761L7.71456 22.5H1C0.723858 22.5 0.5 22.7239 0.5 23C0.5 23.2762 0.723858 23.5 1 23.5H7.56201L6.50572 30.4246C6.46408 30.6976 6.65162 30.9526 6.9246 30.9943C7.19759 31.0359 7.45264 30.8484 7.49428 30.5754L8.57358 23.5H20.562L19.5057 30.4246C19.4641 30.6976 19.6516 30.9526 19.9246 30.9943C20.1976 31.0359 20.4526 30.8484 20.4943 30.5754L21.5736 23.5H30.5C30.7761 23.5 31 23.2762 31 23C31 22.7239 30.7761 22.5 30.5 22.5H21.7261L23.7092 9.50001H30.5C30.7761 9.50001 31 9.27615 31 9.00001C31 8.72387 30.7761 8.50001 30.5 8.50001H23.8617L24.9943 1.07541C25.0359 0.802423 24.8484 0.547368 24.5754 0.505726C24.3024 0.464085 24.0474 0.651625 24.0057 0.92461L22.8501 8.50001H10.8617L11.9943 1.07541ZM20.7146 22.5L22.6976 9.50001H10.7092L8.72612 22.5H20.7146Z" fill="black"/>
<path d="M11.5754 0.505726L11.6508 0.011444L11.6508 0.0114439L11.5754 0.505726ZM11.9943 1.07541L11.5 1.00001L11.5 1.00001L11.9943 1.07541ZM11.0057 0.92461L11.5 1.00001L11.5 1.00001L11.0057 0.92461ZM9.85015 8.50001V9.00001H10.2797L10.3444 8.57541L9.85015 8.50001ZM9.69761 9.50001L10.1919 9.57541L10.2797 9.00001H9.69761V9.50001ZM7.71456 22.5V23H8.14407L8.20884 22.5754L7.71456 22.5ZM7.56201 23.5L8.05629 23.5754L8.14407 23H7.56201V23.5ZM6.50572 30.4246L6.01144 30.3492L6.01144 30.3492L6.50572 30.4246ZM6.9246 30.9943L7 30.5L7 30.5L6.9246 30.9943ZM7.49428 30.5754L7.98856 30.6508L7.98856 30.6508L7.49428 30.5754ZM8.57358 23.5V23H8.14407L8.0793 23.4246L8.57358 23.5ZM20.562 23.5L21.0563 23.5754L21.1441 23H20.562V23.5ZM19.5057 30.4246L20 30.5L20 30.5L19.5057 30.4246ZM19.9246 30.9943L20 30.5L20 30.5L19.9246 30.9943ZM20.4943 30.5754L20 30.5L20 30.5L20.4943 30.5754ZM21.5736 23.5V23H21.1441L21.0793 23.4246L21.5736 23.5ZM21.7261 22.5L21.2318 22.4246L21.1441 23H21.7261V22.5ZM23.7092 9.50001V9.00001H23.2797L23.2149 9.42461L23.7092 9.50001ZM23.8617 8.50001L23.3674 8.42461L23.2797 9.00001H23.8617V8.50001ZM24.9943 1.07541L25.4886 1.15081L25.4886 1.15081L24.9943 1.07541ZM24.5754 0.505726L24.6508 0.011444L24.6508 0.0114439L24.5754 0.505726ZM24.0057 0.92461L24.5 1.00001L24.5 1.00001L24.0057 0.92461ZM22.8501 8.50001V9.00001H23.2797L23.3444 8.57541L22.8501 8.50001ZM10.8617 8.50001L10.3674 8.42461L10.2797 9.00001H10.8617V8.50001ZM20.7146 22.5V23H21.1441L21.2088 22.5754L20.7146 22.5ZM22.6976 9.50001L23.1919 9.57541L23.2797 9.00001H22.6976V9.50001ZM10.7092 9.50001V9.00001H10.2797L10.2149 9.42461L10.7092 9.50001ZM8.72612 22.5L8.23184 22.4246L8.14407 23H8.72612V22.5ZM11.5 1.00001L11.5 1.00001L12.4886 1.15081C12.5718 0.604837 12.1968 0.0947275 11.6508 0.011444L11.5 1.00001ZM11.5 1.00001L11.5 1.00001L11.6508 0.0114439C11.1048 -0.0718393 10.5947 0.303241 10.5114 0.849211L11.5 1.00001ZM10.3444 8.57541L11.5 1.00001L10.5114 0.849211L9.35587 8.42461L10.3444 8.57541ZM1 9.00001H9.85015V8.00001H1V9.00001ZM1 9.00001V8.00001C0.447715 8.00001 0 8.44772 0 9.00001H1ZM1 9.00001H0C0 9.55229 0.447715 10 1 10V9.00001ZM9.69761 9.00001H1V10H9.69761V9.00001ZM8.20884 22.5754L10.1919 9.57541L9.20332 9.42461L7.22027 22.4246L8.20884 22.5754ZM1 23H7.71456V22H1V23ZM1 23V22C0.447715 22 0 22.4477 0 23H1ZM1 23H0C0 23.5523 0.447715 24 1 24V23ZM7.56201 23H1V24H7.56201V23ZM7 30.5L8.05629 23.5754L7.06773 23.4246L6.01144 30.3492L7 30.5ZM7 30.5L7 30.5L6.01144 30.3492C5.92815 30.8952 6.30323 31.4053 6.8492 31.4886L7 30.5ZM7 30.5L7 30.5L6.8492 31.4886C7.39517 31.5719 7.90528 31.1968 7.98856 30.6508L7 30.5ZM8.0793 23.4246L7 30.5L7.98856 30.6508L9.06786 23.5754L8.0793 23.4246ZM20.562 23H8.57358V24H20.562V23ZM20 30.5L21.0563 23.5754L20.0677 23.4246L19.0114 30.3492L20 30.5ZM20 30.5L20 30.5L19.0114 30.3492C18.9281 30.8952 19.3032 31.4053 19.8492 31.4886L20 30.5ZM20 30.5L20 30.5L19.8492 31.4886C20.3952 31.5719 20.9053 31.1968 20.9886 30.6508L20 30.5ZM21.0793 23.4246L20 30.5L20.9886 30.6508L22.0679 23.5754L21.0793 23.4246ZM30.5 23H21.5736V24H30.5V23ZM30.5 23V24C31.0523 24 31.5 23.5523 31.5 23H30.5ZM30.5 23H31.5C31.5 22.4477 31.0523 22 30.5 22V23ZM21.7261 23H30.5V22H21.7261V23ZM23.2149 9.42461L21.2318 22.4246L22.2204 22.5754L24.2035 9.57541L23.2149 9.42461ZM30.5 9.00001H23.7092V10H30.5V9.00001ZM30.5 9.00001V10C31.0523 10 31.5 9.55229 31.5 9.00001H30.5ZM30.5 9.00001H31.5C31.5 8.44772 31.0523 8.00001 30.5 8.00001V9.00001ZM23.8617 9.00001H30.5V8.00001H23.8617V9.00001ZM24.5 1.00001L23.3674 8.42461L24.356 8.57541L25.4886 1.15081L24.5 1.00001ZM24.5 1.00001L24.5 1.00001L25.4886 1.15081C25.5718 0.604838 25.1968 0.0947277 24.6508 0.011444L24.5 1.00001ZM24.5 1.00001L24.5 1.00001L24.6508 0.0114439C24.1048 -0.0718393 23.5947 0.303241 23.5114 0.849211L24.5 1.00001ZM23.3444 8.57541L24.5 1.00001L23.5114 0.849211L22.3559 8.42461L23.3444 8.57541ZM10.8617 9.00001H22.8501V8.00001H10.8617V9.00001ZM11.5 1.00001L10.3674 8.42461L11.356 8.57541L12.4886 1.15081L11.5 1.00001ZM21.2088 22.5754L23.1919 9.57541L22.2033 9.42461L20.2203 22.4246L21.2088 22.5754ZM22.6976 9.00001H10.7092V10H22.6976V9.00001ZM10.2149 9.42461L8.23184 22.4246L9.22041 22.5754L11.2035 9.57541L10.2149 9.42461ZM8.72612 23H20.7146V22H8.72612V23Z" fill="black"/>
</svg>
