<svg width="35" height="31" viewBox="0 0 35 31" fill="none" xmlns="http://www.w3.org/2000/svg">
<path fill-rule="evenodd" clip-rule="evenodd" d="M33.7575 10.478C33.7427 10.467 33.7272 10.4568 33.7112 10.4475L17.5183 0.62427C17.4983 0.611616 17.4776 0.600442 17.4562 0.590791C17.3899 0.560642 17.3196 0.546169 17.25 0.546234C17.1803 0.546168 17.11 0.560639 17.0437 0.590789C17.0223 0.60044 17.0016 0.611616 16.9816 0.62427L0.788717 10.4474C0.772704 10.4568 0.757255 10.467 0.742438 10.478C0.684467 10.5209 0.638131 10.5745 0.60452 10.6343C0.57082 10.6941 0.549053 10.7615 0.542451 10.8332C0.536808 10.8933 0.541965 10.9547 0.558672 11.0143C0.575314 11.0739 0.602737 11.1291 0.63871 11.1775C0.681574 11.2354 0.735127 11.2817 0.794926 11.3154C0.854707 11.3491 0.922125 11.3709 0.99394 11.3775C1.01231 11.3792 1.03081 11.3799 1.04935 11.3796H3.30939L5.94767 29.5183C5.95393 29.5667 5.96712 29.613 5.98622 29.6561C6.01605 29.7236 6.06012 29.7826 6.11415 29.8298C6.16962 29.8784 6.23595 29.915 6.30901 29.9353C6.3544 29.948 6.4021 29.9544 6.45096 29.9536H28.049C28.0967 29.9544 28.1434 29.9483 28.1879 29.9362C28.3317 29.8969 28.4526 29.7944 28.5137 29.6561C28.5328 29.613 28.546 29.5667 28.5522 29.5182L31.1905 11.3796H33.4506C33.4691 11.3799 33.4876 11.3792 33.506 11.3775C33.5778 11.3709 33.6452 11.3491 33.7049 11.3154C33.7648 11.2818 33.8183 11.2354 33.8612 11.1775C33.8919 11.1362 33.9163 11.09 33.9332 11.0403C33.9377 11.027 33.9416 11.0136 33.945 11.0002C33.9587 10.945 33.9627 10.8886 33.9575 10.8332C33.9509 10.7614 33.9291 10.6941 33.8954 10.6343C33.8618 10.5745 33.8154 10.5209 33.7575 10.478ZM30.2621 10.8151L27.6238 28.9536H6.87607L4.2378 10.815C4.23155 10.7665 4.21835 10.7203 4.19925 10.6772C4.13928 10.5419 4.02108 10.4382 3.87645 10.3979C3.83106 10.3852 3.78334 10.3788 3.73446 10.3796H2.82857L17.25 1.63112L31.6713 10.3796H30.7654C30.7166 10.3788 30.6689 10.3852 30.6235 10.3979C30.4788 10.4382 30.3606 10.5419 30.3007 10.6772C30.2816 10.7203 30.2684 10.7666 30.2621 10.8151ZM20.5725 15.25C20.5725 17.1218 19.0746 18.6203 17.25 18.6203C15.4253 18.6203 13.9274 17.1218 13.9274 15.25C13.9274 13.3782 15.4253 11.8796 17.25 11.8796C19.0746 11.8796 20.5725 13.3782 20.5725 15.25ZM21.5725 15.25C21.5725 17.6637 19.6372 19.6203 17.25 19.6203C14.8627 19.6203 12.9274 17.6637 12.9274 15.25C12.9274 12.8363 14.8627 10.8796 17.25 10.8796C19.6372 10.8796 21.5725 12.8363 21.5725 15.25Z" fill="black"/>
<path d="M33.7112 10.4475L33.4518 10.875L33.4592 10.8793L33.7112 10.4475ZM33.7575 10.478L33.4593 10.8794L33.4601 10.8799L33.7575 10.478ZM17.5183 0.62427L17.2503 1.0465L17.2589 1.05176L17.5183 0.62427ZM17.4562 0.590791L17.2494 1.04601L17.2504 1.04645L17.4562 0.590791ZM17.25 0.546234L17.2495 1.04624L17.2504 1.04623L17.25 0.546234ZM17.0437 0.590789L17.2495 1.04645L17.2505 1.046L17.0437 0.590789ZM16.9816 0.62427L17.241 1.05185L17.2496 1.04642L16.9816 0.62427ZM0.788717 10.4474L1.04073 10.8794L1.04805 10.8749L0.788717 10.4474ZM0.742438 10.478L1.03984 10.8799L1.04062 10.8794L0.742438 10.478ZM0.60452 10.6343L1.04003 10.88L1.04047 10.8792L0.60452 10.6343ZM0.542451 10.8332L1.04026 10.88L1.04035 10.879L0.542451 10.8332ZM0.558672 11.0143L1.04028 10.8799L1.04013 10.8794L0.558672 11.0143ZM0.63871 11.1775L1.04065 10.8801L1.04007 10.8793L0.63871 11.1775ZM0.794926 11.3154L1.04068 10.8799L1.03988 10.8795L0.794926 11.3154ZM0.99394 11.3775L1.04071 10.8797L1.03974 10.8796L0.99394 11.3775ZM1.04935 11.3796L1.04935 10.8795L1.04081 10.8797L1.04935 11.3796ZM3.30939 11.3796L3.80419 11.3076L3.74193 10.8796H3.30939V11.3796ZM5.94767 29.5183L6.44363 29.4543L6.44247 29.4463L5.94767 29.5183ZM5.98622 29.6561L6.44353 29.4539L6.44331 29.4534L5.98622 29.6561ZM6.11415 29.8298L6.44368 29.4538L6.44336 29.4535L6.11415 29.8298ZM6.30901 29.9353L6.44376 29.4538L6.44324 29.4537L6.30901 29.9353ZM6.45096 29.9536V29.4536L6.44292 29.4537L6.45096 29.9536ZM28.049 29.9536L28.057 29.4536H28.049V29.9536ZM28.1879 29.9362L28.3197 30.4185L28.3197 30.4185L28.1879 29.9362ZM28.5137 29.6561L28.0566 29.4534L28.0564 29.4539L28.5137 29.6561ZM28.5522 29.5182L28.0574 29.4462L28.0563 29.4543L28.5522 29.5182ZM31.1905 11.3796V10.8796H30.758L30.6957 11.3076L31.1905 11.3796ZM33.4506 11.3796L33.4591 10.8796H33.4506V11.3796ZM33.506 11.3775L33.4602 10.8796L33.4592 10.8797L33.506 11.3775ZM33.7049 11.3154L33.46 10.8795L33.4592 10.8799L33.7049 11.3154ZM33.8612 11.1775L33.4598 10.8793L33.4593 10.8801L33.8612 11.1775ZM33.9332 11.0403L33.4598 10.8792L33.4597 10.8797L33.9332 11.0403ZM33.945 11.0002L33.4597 10.8795L33.4597 10.8795L33.945 11.0002ZM33.9575 10.8332L33.4596 10.879L33.4597 10.88L33.9575 10.8332ZM33.8954 10.6343L33.4594 10.8792L33.4599 10.88L33.8954 10.6343ZM27.6238 28.9536V29.4536H28.0564L28.1186 29.0256L27.6238 28.9536ZM30.2621 10.8151L30.757 10.887L30.758 10.879L30.2621 10.8151ZM6.87607 28.9536L6.38128 29.0256L6.44354 29.4536H6.87607V28.9536ZM4.2378 10.815L3.74184 10.879L3.743 10.887L4.2378 10.815ZM4.19925 10.6772L4.65634 10.4745L4.65634 10.4745L4.19925 10.6772ZM3.87645 10.3979L3.7417 10.8794L3.74223 10.8796L3.87645 10.3979ZM3.73446 10.3796L3.73446 10.8797L3.74256 10.8795L3.73446 10.3796ZM2.82857 10.3796L2.56924 9.95212L1.04033 10.8796H2.82857V10.3796ZM17.25 1.63112L17.5093 1.20362L17.25 1.04631L16.9906 1.20362L17.25 1.63112ZM31.6713 10.3796V10.8796H33.4596L31.9307 9.95212L31.6713 10.3796ZM30.7654 10.3796L30.7573 10.8796H30.7654V10.3796ZM30.6235 10.3979L30.7577 10.8796L30.7582 10.8794L30.6235 10.3979ZM30.3007 10.6772L29.8436 10.4745L29.8436 10.4745L30.3007 10.6772ZM33.4592 10.8793L33.4593 10.8794L34.0556 10.0766C34.026 10.0546 33.9952 10.0343 33.9632 10.0156L33.4592 10.8793ZM17.2589 1.05176L33.4519 10.8749L33.9705 10.02L17.7776 0.196779L17.2589 1.05176ZM17.2504 1.04645L17.2503 1.04642L17.7862 0.202123C17.7463 0.176767 17.7048 0.154414 17.6621 0.135134L17.2504 1.04645ZM17.2504 1.04623C17.2504 1.04623 17.2502 1.04623 17.25 1.04617C17.2498 1.04614 17.2497 1.0461 17.2496 1.04607C17.2494 1.04603 17.2494 1.046 17.2494 1.04601L17.6631 0.135575C17.5301 0.0751437 17.3889 0.0461032 17.2495 0.0462346L17.2504 1.04623ZM17.2505 1.046C17.2505 1.046 17.2505 1.04602 17.2503 1.04606C17.2502 1.0461 17.2501 1.04614 17.2499 1.04617C17.2497 1.04623 17.2495 1.04623 17.2495 1.04623L17.2504 0.0462346C17.111 0.0461021 16.9699 0.0751361 16.8368 0.135574L17.2505 1.046ZM17.2496 1.04642L17.2495 1.04645L16.8378 0.135132C16.7951 0.154429 16.7536 0.176789 16.7137 0.202123L17.2496 1.04642ZM1.04805 10.8749L17.241 1.05176L16.7223 0.196779L0.529387 10.0199L1.04805 10.8749ZM1.04062 10.8794L1.04069 10.8793L0.536746 10.0156C0.504721 10.0343 0.473849 10.0547 0.444255 10.0766L1.04062 10.8794ZM1.04047 10.8792L1.03984 10.8799L0.445039 10.0761C0.328998 10.1619 0.235943 10.2695 0.168565 10.3895L1.04047 10.8792ZM1.04035 10.879L1.04002 10.88L0.169015 10.3887C0.101455 10.5085 0.0577674 10.6438 0.0445531 10.7874L1.04035 10.879ZM1.04013 10.8794L1.04026 10.88L0.0446434 10.7865C0.0333791 10.9063 0.0436358 11.0293 0.0772137 11.1492L1.04013 10.8794ZM1.04007 10.8793L1.04028 10.8799L0.0770665 11.1487C0.110512 11.2685 0.165539 11.379 0.237353 11.4757L1.04007 10.8793ZM1.03988 10.8795L1.04065 10.8801L0.236772 11.4749C0.322574 11.5909 0.430093 11.6839 0.549971 11.7512L1.03988 10.8795ZM1.03974 10.8796L1.04068 10.8799L0.549172 11.7508C0.669013 11.8184 0.80439 11.8622 0.948139 11.8754L1.03974 10.8796ZM1.04081 10.8797L1.04071 10.8797L0.947174 11.8753C0.983853 11.8787 1.02081 11.8802 1.05789 11.8795L1.04081 10.8797ZM3.30939 10.8796H1.04935V11.8796H3.30939V10.8796ZM6.44247 29.4463L3.80419 11.3076L2.8146 11.4516L5.45288 29.5902L6.44247 29.4463ZM6.44331 29.4534L6.44356 29.4543L5.45178 29.5822C5.46431 29.6793 5.49077 29.7722 5.52913 29.8587L6.44331 29.4534ZM6.44336 29.4535L6.44353 29.4539L5.52891 29.8582C5.58888 29.9939 5.67725 30.1119 5.78493 30.2061L6.44336 29.4535ZM6.44324 29.4537L6.44368 29.4538L5.78461 30.2059C5.8952 30.3028 6.02793 30.376 6.17478 30.417L6.44324 29.4537ZM6.44292 29.4537L6.44376 29.4538L6.17426 30.4168C6.26538 30.4423 6.36116 30.4551 6.459 30.4536L6.44292 29.4537ZM28.049 29.4536H6.45096V30.4536H28.049V29.4536ZM28.0562 29.4538L28.057 29.4537L28.0409 30.4536C28.1366 30.4551 28.2303 30.4429 28.3197 30.4185L28.0562 29.4538ZM28.0564 29.4539L28.0562 29.4538L28.3197 30.4185C28.6069 30.34 28.8484 30.1357 28.971 29.8582L28.0564 29.4539ZM28.0563 29.4543L28.0566 29.4534L28.9708 29.8587C29.0091 29.7722 29.0356 29.6792 29.0481 29.5821L28.0563 29.4543ZM30.6957 11.3076L28.0575 29.4462L29.047 29.5902L31.6853 11.4516L30.6957 11.3076ZM33.4506 10.8796H31.1905V11.8796H33.4506V10.8796ZM33.4592 10.8797L33.4591 10.8797L33.442 11.8795C33.4791 11.8802 33.5161 11.8787 33.5527 11.8753L33.4592 10.8797ZM33.4592 10.8799L33.4602 10.8796L33.5518 11.8754C33.6955 11.8622 33.8308 11.8184 33.9506 11.7508L33.4592 10.8799ZM33.4593 10.8801L33.46 10.8795L33.9498 11.7513C34.0698 11.6839 34.1773 11.5909 34.2631 11.4749L33.4593 10.8801ZM33.4597 10.8797L33.4599 10.8793L34.2625 11.4757C34.3239 11.3931 34.3729 11.3005 34.4067 11.2008L33.4597 10.8797ZM33.4597 10.8795L33.4598 10.8792L34.4065 11.2014C34.4156 11.1747 34.4235 11.1478 34.4302 11.1208L33.4597 10.8795ZM33.4597 10.88L33.4597 10.8795L34.4302 11.1208C34.4577 11.01 34.4656 10.8969 34.4553 10.7864L33.4597 10.88ZM33.4599 10.88L33.4596 10.879L34.4554 10.7874C34.4421 10.6437 34.3984 10.5084 34.3309 10.3886L33.4599 10.88ZM33.4601 10.8799L33.4594 10.8792L34.3313 10.3894C34.2639 10.2695 34.1709 10.1619 34.0549 10.0761L33.4601 10.8799ZM28.1186 29.0256L30.7569 10.887L29.7673 10.7431L27.129 28.8817L28.1186 29.0256ZM6.87607 29.4536H27.6238V28.4536H6.87607V29.4536ZM3.743 10.887L6.38128 29.0256L7.37086 28.8817L4.73259 10.7431L3.743 10.887ZM3.74216 10.8798L3.7419 10.879L4.73369 10.7511C4.72117 10.654 4.69469 10.561 4.65634 10.4745L3.74216 10.8798ZM3.74223 10.8796L3.74216 10.8798L4.65634 10.4745C4.53655 10.2043 4.3009 9.99715 4.01068 9.91627L3.74223 10.8796ZM3.74256 10.8795L3.7417 10.8794L4.01121 9.91642C3.92005 9.89091 3.82423 9.87809 3.72637 9.87968L3.74256 10.8795ZM2.82857 10.8796H3.73446V9.87961H2.82857V10.8796ZM16.9906 1.20362L2.56924 9.95212L3.0879 10.8071L17.5093 2.05861L16.9906 1.20362ZM31.9307 9.95212L17.5093 1.20362L16.9906 2.05861L31.412 10.8071L31.9307 9.95212ZM30.7654 10.8796H31.6713V9.87961H30.7654V10.8796ZM30.7582 10.8794L30.7573 10.8795L30.7735 9.87968C30.6757 9.87809 30.5799 9.89091 30.4887 9.91642L30.7582 10.8794ZM30.7578 10.8798L30.7577 10.8796L30.4892 9.91627C30.199 9.99715 29.9634 10.2043 29.8436 10.4745L30.7578 10.8798ZM30.758 10.879L30.7578 10.8798L29.8436 10.4745C29.8052 10.561 29.7787 10.654 29.7662 10.7511L30.758 10.879ZM17.25 19.1203C19.3555 19.1203 21.0725 17.3932 21.0725 15.25H20.0725C20.0725 16.8503 18.7938 18.1203 17.25 18.1203V19.1203ZM13.4274 15.25C13.4274 17.3932 15.1444 19.1203 17.25 19.1203V18.1203C15.7061 18.1203 14.4274 16.8503 14.4274 15.25H13.4274ZM17.25 11.3796C15.1444 11.3796 13.4274 13.1068 13.4274 15.25H14.4274C14.4274 13.6496 15.7061 12.3796 17.25 12.3796V11.3796ZM21.0725 15.25C21.0725 13.1068 19.3555 11.3796 17.25 11.3796V12.3796C18.7938 12.3796 20.0725 13.6496 20.0725 15.25H21.0725ZM17.25 20.1203C19.9186 20.1203 22.0725 17.9346 22.0725 15.25H21.0725C21.0725 17.3927 19.3559 19.1203 17.25 19.1203V20.1203ZM12.4274 15.25C12.4274 17.9346 14.5814 20.1203 17.25 20.1203V19.1203C15.144 19.1203 13.4274 17.3927 13.4274 15.25H12.4274ZM17.25 10.3796C14.5814 10.3796 12.4274 12.5653 12.4274 15.25H13.4274C13.4274 13.1072 15.144 11.3796 17.25 11.3796V10.3796ZM22.0725 15.25C22.0725 12.5653 19.9186 10.3796 17.25 10.3796V11.3796C19.3559 11.3796 21.0725 13.1072 21.0725 15.25H22.0725Z" fill="black"/>
</svg>
