<svg width="34" height="31" viewBox="0 0 34 31" fill="none" xmlns="http://www.w3.org/2000/svg">
<path fill-rule="evenodd" clip-rule="evenodd" d="M32.826 10.1885C32.8132 10.179 32.7999 10.17 32.7862 10.1617L16.8069 0.144733C16.7251 0.0910681 16.6293 0.0627309 16.5322 0.0626376C16.4611 0.0625691 16.3892 0.0776858 16.3217 0.109137C16.2996 0.11938 16.2781 0.131267 16.2576 0.144755L0.278449 10.1617C0.263786 10.1705 0.249615 10.1801 0.235987 10.1904C0.17832 10.2337 0.132399 10.2876 0.0992447 10.3477C0.0659811 10.4077 0.0446942 10.4752 0.0386103 10.5471C0.033408 10.6072 0.0390203 10.6685 0.0561542 10.728C0.07323 10.7875 0.101055 10.8425 0.137392 10.8906C0.180722 10.9483 0.234633 10.9942 0.294675 11.0274C0.354658 11.0606 0.4222 11.0819 0.494075 11.088C0.511082 11.0895 0.528186 11.0901 0.545319 11.0898H2.76817L5.37252 29.5926C5.37836 29.6393 5.39063 29.684 5.40841 29.7257C5.4389 29.7975 5.4854 29.8599 5.5429 29.9093C5.63327 29.9868 5.7508 30.0319 5.87599 30.0299H27.1885C27.2378 30.0307 27.2858 30.0242 27.3315 30.0113C27.4749 29.9708 27.5949 29.8673 27.6549 29.7285C27.6733 29.6859 27.686 29.6403 27.692 29.5925L30.2063 11.7297L30.4785 11.0898H32.5192C32.5363 11.0901 32.5534 11.0895 32.5704 11.088C32.6423 11.0819 32.7098 11.0606 32.7698 11.0274C32.8299 10.9942 32.8838 10.9483 32.9271 10.8906C32.9628 10.8433 32.9903 10.7893 33.0075 10.731C33.0256 10.6696 33.0314 10.6062 33.0256 10.5441C33.0193 10.4744 32.9987 10.4088 32.9667 10.3502C32.9329 10.2883 32.8857 10.2328 32.826 10.1885ZM20.8641 15.0463C20.8641 17.6123 18.8838 19.6169 16.5323 19.6169C14.1807 19.6169 12.2004 17.6123 12.2004 15.0463C12.2004 12.4803 14.1807 10.4757 16.5323 10.4757C18.8838 10.4757 20.8641 12.4803 20.8641 15.0463Z" fill="black"/>
</svg>
