<svg width="34" height="32" viewBox="0 0 34 32" fill="none" xmlns="http://www.w3.org/2000/svg">
<rect x="1.5" y="1.5" width="31" height="29" rx="2.5" fill="white" stroke="#1D9BF0" stroke-width="3"/>
<path d="M1.5 28L12 16L26 30" stroke="#1D9BF0" stroke-width="3" stroke-linecap="round"/>
<path d="M19.5 22.5L28.5 13L32.5 17.5" stroke="#1D9BF0" stroke-width="3" stroke-linecap="round"/>
<mask id="path-4-inside-1_7_333" fill="white">
<path d="M11 8C11 8.82843 10.3284 9.5 9.5 9.5C8.67157 9.5 8 8.82843 8 8C8 7.17157 8.67157 6.5 9.5 6.5C10.3284 6.5 11 7.17157 11 8Z"/>
</mask>
<path d="M11 8C11 8.82843 10.3284 9.5 9.5 9.5C8.67157 9.5 8 8.82843 8 8C8 7.17157 8.67157 6.5 9.5 6.5C10.3284 6.5 11 7.17157 11 8Z" fill="#1D9BF0"/>
<path d="M8 8C8 7.17157 8.67157 6.5 9.5 6.5V12.5C11.9853 12.5 14 10.4853 14 8H8ZM9.5 6.5C10.3284 6.5 11 7.17157 11 8H5C5 10.4853 7.01472 12.5 9.5 12.5V6.5ZM11 8C11 8.82843 10.3284 9.5 9.5 9.5V3.5C7.01472 3.5 5 5.51472 5 8H11ZM9.5 9.5C8.67157 9.5 8 8.82843 8 8H14C14 5.51472 11.9853 3.5 9.5 3.5V9.5Z" fill="#1D9BF0" mask="url(#path-4-inside-1_7_333)"/>
</svg>
