<svg width="30" height="46" viewBox="0 0 30 46" fill="none" xmlns="http://www.w3.org/2000/svg">
<path d="M1.09647 16.167C-0.984691 -4.36463 31.327 -3.74432 28.5965 16.167" stroke="#198AC9"/>
<path d="M1.11396 15.6691C0.32253 16.8031 9.34273 32.7194 15.2614 44.6691C20.8464 33.2658 29.5353 15.4432 28.5965 15.6691" stroke="#198AC9"/>
<circle cx="15.0965" cy="13.667" r="4.5" fill="white" stroke="#198AC9"/>
<path d="M6 3.5H12L10.5 16L17.5 38H11.5L1 16L2 9.5L6 3.5Z" fill="#198AC9"/>
<path d="M15.5 9L9 11.5L2.5 8L4.5 5.5L7.5 3L10 2L13 1.5H19L25.5 5L28.5 10.5V15L27 19L15.5 44.5L8 29L10 15L13 18H16L18.5 17L19.5 15V12.5L18 10L15.5 9Z" fill="#198AC9"/>
</svg>
