<svg width="38" height="39" viewBox="0 0 38 39" fill="none" xmlns="http://www.w3.org/2000/svg">
<path d="M27.4689 4.57858C29.5363 6.49186 31.165 8.85755 31.6027 11.25H18.7671H5.92475C6.3638 8.8585 7.99685 6.49291 10.0654 4.57858C12.3579 2.45697 15.4865 1.25 18.7671 1.25C22.0478 1.25 25.1764 2.45697 27.4689 4.57858Z" stroke="black" stroke-width="2.5"/>
<path d="M5.72603 12C5.72603 19.1667 4.98082 33.6 2 34" stroke="black" stroke-width="2.5" stroke-linecap="round"/>
<path d="M31.8082 12.5C31.8082 19.6667 33.0192 33.6 36 34" stroke="black" stroke-width="2.5" stroke-linecap="round"/>
<path d="M2 34H36" stroke="black" stroke-width="2.5" stroke-linecap="round"/>
<mask id="path-5-inside-1_4_173" fill="white">
<path d="M24.2466 34.5C24.2466 35.6935 23.7068 36.8381 22.746 37.682C21.7852 38.5259 20.4821 39 19.1233 39C17.7645 39 16.4614 38.5259 15.5006 37.682C14.5398 36.8381 14 35.6935 14 34.5L16.6596 34.5C16.6596 35.0739 16.9191 35.6243 17.3812 36.0302C17.8432 36.436 18.4699 36.664 19.1233 36.664C19.7767 36.664 20.4034 36.436 20.8654 36.0302C21.3274 35.6243 21.587 35.0739 21.587 34.5H24.2466Z"/>
</mask>
<path d="M24.2466 34.5C24.2466 35.6935 23.7068 36.8381 22.746 37.682C21.7852 38.5259 20.4821 39 19.1233 39C17.7645 39 16.4614 38.5259 15.5006 37.682C14.5398 36.8381 14 35.6935 14 34.5L16.6596 34.5C16.6596 35.0739 16.9191 35.6243 17.3812 36.0302C17.8432 36.436 18.4699 36.664 19.1233 36.664C19.7767 36.664 20.4034 36.436 20.8654 36.0302C21.3274 35.6243 21.587 35.0739 21.587 34.5H24.2466Z" fill="white" stroke="black" stroke-width="5" mask="url(#path-5-inside-1_4_173)"/>
</svg>
