<svg width="39" height="38" viewBox="0 0 39 38" fill="none" xmlns="http://www.w3.org/2000/svg">
<path d="M28.6001 4.41858C30.9026 6.40348 32.5774 8.92583 32.9307 11.5H19H5.06927C5.42259 8.92583 7.0974 6.40348 9.39989 4.41857C11.9241 2.24252 15.3756 1 19 1C22.6244 1 26.0759 2.24252 28.6001 4.41858Z" fill="white" stroke="black" stroke-width="2"/>
<path d="M5 12C5 19.1667 4.2 33.6 1 34" stroke="black" stroke-width="2" stroke-linecap="round"/>
<path d="M33 12.5C33 19.6667 34.3 33.6 37.5 34" stroke="black" stroke-width="2" stroke-linecap="round"/>
<path d="M1 34H37.5" stroke="black" stroke-width="2" stroke-linecap="round"/>
<mask id="path-5-inside-1_4_189" fill="white">
<path d="M24.5 33.5C24.5 34.6935 23.9205 35.8381 22.8891 36.682C21.8576 37.5259 20.4587 38 19 38C17.5413 38 16.1424 37.5259 15.1109 36.682C14.0795 35.8381 13.5 34.6935 13.5 33.5L19 33.5H24.5Z"/>
</mask>
<path d="M24.5 33.5C24.5 34.6935 23.9205 35.8381 22.8891 36.682C21.8576 37.5259 20.4587 38 19 38C17.5413 38 16.1424 37.5259 15.1109 36.682C14.0795 35.8381 13.5 34.6935 13.5 33.5L19 33.5H24.5Z" fill="white" stroke="black" stroke-width="4" mask="url(#path-5-inside-1_4_189)"/>
<path d="M6.32349 10.5H31.6875L32 12.5H6L6.32349 10.5Z" fill="white"/>
<path d="M9 3.5L13.5 1.5L18.5 0.5L24.5 1.5L29 3.5L32.5 10L33 15.5L33.5 22L36 33.5H2.5L4.5 26L5 19L5.5 10L9 3.5Z" fill="black"/>
</svg>
