<svg width="30" height="33" viewBox="0 0 30 33" fill="none" xmlns="http://www.w3.org/2000/svg">
<path fill-rule="evenodd" clip-rule="evenodd" d="M0.491366 0.435028H0.991366H28.5085H29.0085V0.935028V31.5123C29.0094 31.5504 29.0058 31.5889 28.9977 31.627C28.9852 31.686 28.9624 31.7412 28.9311 31.7905C28.8548 31.911 28.7283 31.9966 28.581 32.018C28.5238 32.0264 28.4647 32.025 28.4063 32.0127C28.3675 32.0047 28.3303 31.9921 28.2953 31.9756L14.7499 25.9528L1.20454 31.9756C1.16957 31.9921 1.13238 32.0047 1.09354 32.0127C1.03514 32.025 0.976043 32.0264 0.918847 32.018C0.845913 32.0074 0.778082 31.981 0.718911 31.9425C0.609704 31.8714 0.529998 31.7588 0.502167 31.627C0.494021 31.5889 0.490514 31.5504 0.491366 31.5123V0.935028V0.435028Z" fill="black"/>
</svg>
