<svg width="31" height="34" viewBox="0 0 31 34" fill="none" xmlns="http://www.w3.org/2000/svg">
<path fill-rule="evenodd" clip-rule="evenodd" d="M1.48346 0.985031H0.983463V1.48503V32.504C0.982611 32.5419 0.986093 32.5803 0.994182 32.6183C1.02191 32.7501 1.10153 32.8628 1.21068 32.934C1.26982 32.9725 1.33763 32.9989 1.41055 33.0096C1.46829 33.0181 1.52797 33.0167 1.58694 33.0041C1.62501 32.9961 1.66148 32.9838 1.69583 32.9676L15.5 26.8557L29.3042 32.9676C29.3385 32.9838 29.375 32.9961 29.4131 33.0041C29.472 33.0167 29.5317 33.0181 29.5894 33.0096C29.7367 32.9881 29.8631 32.9024 29.9394 32.7818C29.9706 32.7325 29.9934 32.6773 30.0058 32.6183C30.0139 32.5803 30.0174 32.5419 30.0165 32.5039V1.48503V0.985031H29.5165H15.5H1.48346ZM29.0165 31.7467V1.98503H15.5H1.98346V31.7467L15.2976 25.8517L15.5 25.7621L15.7024 25.8517L29.0165 31.7467Z" fill="black"/>
<path d="M0.983463 0.985031V0.485031H0.483463V0.985031H0.983463ZM0.983463 32.504L1.48346 32.5152V32.504H0.983463ZM0.994182 32.6183L1.48347 32.5154L1.48326 32.5144L0.994182 32.6183ZM1.21068 32.934L1.48383 32.5152L1.48382 32.5152L1.21068 32.934ZM1.41055 33.0096L1.48392 32.515L1.48283 32.5148L1.41055 33.0096ZM1.58694 33.0041L1.48398 32.5148L1.483 32.5151L1.58694 33.0041ZM1.69583 32.9676L1.49335 32.5103L1.48322 32.5151L1.69583 32.9676ZM15.5 26.8557L15.7024 26.3985L15.5 26.3089L15.2976 26.3985L15.5 26.8557ZM29.3042 32.9676L29.5168 32.515L29.5066 32.5105L29.3042 32.9676ZM29.4131 33.0041L29.517 32.5151L29.516 32.5148L29.4131 33.0041ZM29.5894 33.0096L29.5172 32.5148L29.5161 32.515L29.5894 33.0096ZM29.9394 32.7818L30.3619 33.0491L30.3619 33.0491L29.9394 32.7818ZM30.0058 32.6183L29.5167 32.5144L29.5165 32.5154L30.0058 32.6183ZM30.0165 32.5039H29.5164L29.5167 32.5152L30.0165 32.5039ZM30.0165 0.985031H30.5165V0.485031H30.0165V0.985031ZM29.0165 31.7467L28.8141 32.2038L29.5165 32.5148V31.7467H29.0165ZM29.0165 1.98503H29.5165V1.48503H29.0165V1.98503ZM1.98346 1.98503V1.48503H1.48346V1.98503H1.98346ZM1.98346 31.7467H1.48346V32.5148L2.18589 32.2038L1.98346 31.7467ZM15.2976 25.8517L15.5 26.3089L15.5 26.3089L15.2976 25.8517ZM15.5 25.7621L15.7024 25.3049L15.5 25.2153L15.2976 25.3049L15.5 25.7621ZM15.7024 25.8517L15.5 26.3089L15.5 26.3089L15.7024 25.8517ZM0.983463 1.48503H1.48346V0.485031H0.983463V1.48503ZM1.48346 1.48503V0.985031H0.483463V1.48503H1.48346ZM1.48346 32.504V1.48503H0.483463V32.504H1.48346ZM1.48326 32.5144L1.48334 32.5152L0.483588 32.4927C0.481881 32.5688 0.488868 32.6459 0.505107 32.7223L1.48326 32.5144ZM1.48382 32.5152L1.48347 32.5154L0.504898 32.7213C0.560643 32.9862 0.720215 33.211 0.937537 33.3528L1.48382 32.5152ZM1.48283 32.5148C1.48295 32.5148 1.48322 32.5149 1.48351 32.515C1.48376 32.5151 1.48387 32.5152 1.48383 32.5152L0.937532 33.3528C1.05584 33.4299 1.19194 33.4829 1.33828 33.5043L1.48283 32.5148ZM1.483 32.5151L1.48392 32.515L1.33719 33.5042C1.4527 33.5213 1.57244 33.5184 1.69087 33.4932L1.483 32.5151ZM1.48322 32.5151L1.48398 32.5148L1.68989 33.4934C1.76633 33.4773 1.83957 33.4525 1.90844 33.4202L1.48322 32.5151ZM15.2976 26.3985L1.4934 32.5105L1.89825 33.4248L15.7024 27.3129L15.2976 26.3985ZM29.5066 32.5105L15.7024 26.3985L15.2976 27.3129L29.1018 33.4248L29.5066 32.5105ZM29.516 32.5148L29.5168 32.5151L29.0916 33.4202C29.1605 33.4526 29.2337 33.4773 29.3101 33.4934L29.516 32.5148ZM29.5161 32.515L29.517 32.5151L29.3091 33.4932C29.4276 33.5184 29.5473 33.5213 29.6628 33.5042L29.5161 32.515ZM29.5168 32.5145L29.5172 32.5148L29.6617 33.5043C29.9577 33.4611 30.2101 33.2891 30.3619 33.0491L29.5168 32.5145ZM29.5165 32.5154L29.5168 32.5145L30.3619 33.0491C30.4243 32.9505 30.4702 32.8398 30.4951 32.7213L29.5165 32.5154ZM29.5167 32.5152L29.5167 32.5144L30.4949 32.7223C30.5111 32.6458 30.5181 32.5688 30.5164 32.4927L29.5167 32.5152ZM29.5165 1.48503V32.5039H30.5165V1.48503H29.5165ZM29.5165 0.985031V1.48503H30.5165V0.985031H29.5165ZM29.5165 1.48503H30.0165V0.485031H29.5165V1.48503ZM15.5 1.48503H29.5165V0.485031H15.5V1.48503ZM1.48346 1.48503H15.5V0.485031H1.48346V1.48503ZM29.5165 31.7467V1.98503H28.5165V31.7467H29.5165ZM29.0165 1.48503H15.5V2.48503H29.0165V1.48503ZM15.5 1.48503H1.98346V2.48503H15.5V1.48503ZM1.48346 1.98503V31.7467H2.48346V1.98503H1.48346ZM2.18589 32.2038L15.5 26.3089L15.0951 25.3945L1.78104 31.2895L2.18589 32.2038ZM15.5 26.3089L15.7024 26.2193L15.2976 25.3049L15.0951 25.3945L15.5 26.3089ZM15.2976 26.2193L15.5 26.3089L15.9049 25.3945L15.7024 25.3049L15.2976 26.2193ZM15.5 26.3089L28.8141 32.2038L29.219 31.2895L15.9049 25.3945L15.5 26.3089Z" fill="black"/>
</svg>
