<svg width="32" height="32" viewBox="0 0 32 32" fill="none" xmlns="http://www.w3.org/2000/svg">
<circle cx="16" cy="16" r="15.5" fill="#1D9BF0" stroke="#1D9BF0"/>
<path d="M19.5 16.5H20H20.5" stroke="white"/>
<path d="M12 22C11.4212 22 18.5 10 23.4867 9" stroke="white"/>
<path d="M18 18.5C21.2738 16.2018 23.2732 15.7278 21.5 16" stroke="white"/>
<path d="M11 24C13.4226 15.6589 17.4583 11.4058 23.5 8" stroke="white" stroke-linecap="round"/>
<path d="M11 24C14.5872 20.8004 17 17.5 18 18.5M23.5 8C25.0468 10.6762 25.2289 11.7071 23.5 12.5" stroke="white" stroke-linecap="round"/>
<path d="M23.5 12.5C21.6655 13.2868 19 14 19 15C19 16 19.9234 16.0228 22 16" stroke="white"/>
<path d="M10 9.5V15" stroke="white" stroke-linecap="round"/>
<path d="M7.5 12H12.5" stroke="white" stroke-linecap="round"/>
<path d="M12 22.5L22.5 10L13.5 19L13.6404 18.8518M22.5 9.5H23.5L23.6667 10M22.5 9.5L24 11.5L21.1562 12.5664M22.5 9.5L13.6404 18.8518M21.1562 12.5664L20 13L24 11L23.6667 10M21.1562 12.5664L23.6667 10M13.6404 18.8518L13.5 20L18.1261 15.8365M18.1261 15.8365L18.5 15.5L19.5 16.5L15.5 18.5L18.5 17.5L18.1261 15.8365ZM15.5 19L15 19.5L16.5 18.5" stroke="white"/>
</svg>
