<svg width="34" height="42" viewBox="0 0 34 42" fill="none" xmlns="http://www.w3.org/2000/svg">
<rect x="11" y="1" width="12" height="14" rx="5" fill="black" stroke="black" stroke-width="2"/>
<mask id="path-2-inside-1_4_239" fill="white">
<path d="M34 29.5C34 26.1848 32.2089 23.0054 29.0208 20.6612C25.8327 18.317 21.5087 17 17 17C12.4913 17 8.1673 18.317 4.97919 20.6612C1.79107 23.0054 6.80792e-07 26.1848 0 29.5L17 29.5H34Z"/>
</mask>
<path d="M34 29.5C34 26.1848 32.2089 23.0054 29.0208 20.6612C25.8327 18.317 21.5087 17 17 17C12.4913 17 8.1673 18.317 4.97919 20.6612C1.79107 23.0054 6.80792e-07 26.1848 0 29.5L17 29.5H34Z" fill="black" stroke="black" stroke-width="4" mask="url(#path-2-inside-1_4_239)"/>
</svg>
