<svg width="34" height="45" viewBox="0 0 34 45" fill="none" xmlns="http://www.w3.org/2000/svg">
<rect x="11" y="4" width="12" height="14" rx="5" fill="white" stroke="black" stroke-width="2"/>
<mask id="path-2-inside-1_24_187" fill="white">
<path d="M34 32.5C34 29.1848 32.2089 26.0054 29.0208 23.6612C25.8327 21.317 21.5087 20 17 20C12.4913 20 8.1673 21.317 4.97919 23.6612C1.79107 26.0054 6.80792e-07 29.1848 0 32.5L17 32.5H34Z"/>
</mask>
<path d="M34 32.5C34 29.1848 32.2089 26.0054 29.0208 23.6612C25.8327 21.317 21.5087 20 17 20C12.4913 20 8.1673 21.317 4.97919 23.6612C1.79107 26.0054 6.80792e-07 29.1848 0 32.5L17 32.5H34Z" fill="#FFFAFA" stroke="black" stroke-width="4" mask="url(#path-2-inside-1_24_187)"/>
<path d="M29.5 1V8" stroke="black" stroke-width="1.5" stroke-linecap="round"/>
<path d="M33 4H26" stroke="black" stroke-width="1.5" stroke-linecap="round"/>
<rect x="11" y="4" width="12" height="14" rx="5" fill="white" stroke="black" stroke-width="2"/>
<mask id="path-6-inside-2_24_187" fill="white">
<path d="M34 32.5C34 29.1848 32.2089 26.0054 29.0208 23.6612C25.8327 21.317 21.5087 20 17 20C12.4913 20 8.1673 21.317 4.97919 23.6612C1.79107 26.0054 6.80792e-07 29.1848 0 32.5L17 32.5H34Z"/>
</mask>
<path d="M34 32.5C34 29.1848 32.2089 26.0054 29.0208 23.6612C25.8327 21.317 21.5087 20 17 20C12.4913 20 8.1673 21.317 4.97919 23.6612C1.79107 26.0054 6.80792e-07 29.1848 0 32.5L17 32.5H34Z" fill="#FFFAFA" stroke="black" stroke-width="4" mask="url(#path-6-inside-2_24_187)"/>
</svg>
